<svg width="280" height="80" viewBox="0 0 280 80" xmlns="http://www.w3.org/2000/svg" xmlns:sketch="http://www.bohemiancoding.com/sketch/ns"><title>thumb-sport</title><desc>Created with Sketch.</desc><g sketch:type="MSShapeGroup" fill="#000"><path d="M3 76.385h273v-73h-273v73zm276.078 3.1h-279.078v-79.1h279.078v79.1z"/><path d="M78.203 48.609c0-.797-.121-1.512-.363-2.145s-.578-1.199-1.008-1.699c-.43-.5-.926-.941-1.488-1.324-.563-.383-1.164-.723-1.805-1.02-.641-.297-1.297-.562-1.969-.797-.672-.234-1.32-.453-1.945-.656-.797-.25-1.605-.527-2.426-.832-.82-.305-1.617-.656-2.391-1.055-.773-.398-1.5-.852-2.18-1.359-.68-.508-1.273-1.082-1.781-1.723s-.906-1.355-1.195-2.145c-.289-.789-.434-1.668-.434-2.637 0-1.422.316-2.68.949-3.773.633-1.094 1.457-2.016 2.473-2.766 1.016-.75 2.16-1.316 3.434-1.699 1.273-.383 2.559-.574 3.855-.574 1.453 0 2.836.238 4.148.715 1.313.477 2.465 1.145 3.457 2.004s1.785 1.902 2.379 3.129c.594 1.227.914 2.59.961 4.09h-2.836c-.125-1.109-.398-2.121-.82-3.035-.422-.914-.984-1.699-1.688-2.355-.703-.656-1.527-1.168-2.473-1.535-.945-.367-1.988-.551-3.129-.551-.953 0-1.895.129-2.824.387-.93.258-1.766.648-2.508 1.172-.742.523-1.344 1.18-1.805 1.969-.461.789-.691 1.715-.691 2.777 0 1.141.27 2.109.809 2.906.539.797 1.223 1.469 2.051 2.016.828.547 1.738 1.004 2.73 1.371s1.934.684 2.824.949c.828.25 1.664.535 2.508.855.844.32 1.66.691 2.449 1.113.789.422 1.527.895 2.215 1.418.688.523 1.285 1.121 1.793 1.793.508.672.906 1.418 1.195 2.238.289.82.434 1.73.434 2.73 0 1.5-.324 2.805-.973 3.914-.648 1.109-1.488 2.035-2.52 2.777-1.031.742-2.203 1.297-3.516 1.664-1.313.367-2.641.551-3.984.551-1.5 0-2.953-.219-4.359-.656-1.406-.438-2.66-1.078-3.762-1.922-1.102-.844-1.996-1.887-2.684-3.129-.688-1.242-1.055-2.66-1.102-4.254h2.836c.141 1.219.465 2.301.973 3.246.508.945 1.16 1.734 1.957 2.367.797.633 1.719 1.109 2.766 1.43 1.047.32 2.172.48 3.375.48 1 0 1.98-.125 2.941-.375.961-.25 1.824-.637 2.59-1.16.766-.523 1.383-1.187 1.852-1.992.469-.805.703-1.77.703-2.895zm30.633-4.031c0 1.641-.199 3.238-.598 4.793-.398 1.555-1.008 2.93-1.828 4.125-.82 1.195-1.855 2.156-3.105 2.883-1.25.727-2.734 1.09-4.453 1.09-1.578 0-3.023-.305-4.336-.914-1.313-.609-2.414-1.492-3.305-2.648v12.844h-2.813v-35.109h2.625l.117 3.469c.891-1.25 1.984-2.219 3.281-2.906 1.297-.688 2.758-1.031 4.383-1.031 1.734 0 3.234.355 4.5 1.066 1.266.711 2.305 1.664 3.117 2.859.813 1.195 1.418 2.57 1.816 4.125.398 1.555.598 3.176.598 4.863v.492zm-2.813-.492c0-1.266-.141-2.523-.422-3.773s-.734-2.371-1.359-3.363-1.434-1.797-2.426-2.414c-.992-.617-2.207-.926-3.645-.926-.813 0-1.574.113-2.285.34-.711.227-1.359.547-1.945.961-.586.414-1.109.906-1.57 1.477-.461.57-.848 1.199-1.16 1.887v12.563c.656 1.313 1.594 2.352 2.813 3.117 1.219.766 2.617 1.148 4.195 1.148 1.422 0 2.629-.312 3.621-.938.992-.625 1.797-1.434 2.414-2.426.617-.992 1.066-2.117 1.348-3.375.281-1.258.422-2.52.422-3.785v-.492zm9.656-.141c.016-1.719.281-3.352.797-4.898.516-1.547 1.254-2.902 2.215-4.066.961-1.164 2.141-2.09 3.539-2.777 1.398-.688 2.98-1.031 4.746-1.031 1.781 0 3.371.344 4.77 1.031 1.398.688 2.582 1.613 3.551 2.777.969 1.164 1.711 2.52 2.227 4.066.516 1.547.781 3.18.797 4.898v.773c-.016 1.719-.277 3.352-.785 4.898-.508 1.547-1.246 2.902-2.215 4.066-.969 1.164-2.148 2.086-3.539 2.766-1.391.68-2.977 1.02-4.758 1.02-1.781 0-3.371-.34-4.77-1.02-1.398-.68-2.582-1.602-3.551-2.766-.969-1.164-1.711-2.52-2.227-4.066-.516-1.547-.781-3.18-.797-4.898v-.773zm2.813.773c0 1.344.187 2.641.563 3.891.375 1.25.922 2.355 1.641 3.316.719.961 1.605 1.73 2.66 2.309 1.055.578 2.277.867 3.668.867 1.375 0 2.59-.289 3.645-.867 1.055-.578 1.937-1.348 2.648-2.309.711-.961 1.254-2.066 1.629-3.316s.563-2.547.563-3.891v-.773c0-1.328-.187-2.617-.563-3.867-.375-1.25-.922-2.355-1.641-3.316-.719-.961-1.609-1.734-2.672-2.32-1.063-.586-2.281-.879-3.656-.879s-2.59.293-3.645.879c-1.055.586-1.937 1.359-2.648 2.32-.711.961-1.254 2.066-1.629 3.316s-.563 2.539-.563 3.867v.773zm44.227-13.547c.703 0 1.406.043 2.109.129.703.086 1.289.207 1.758.363l-.352 2.695c-.656-.141-1.312-.25-1.969-.328-.656-.078-1.328-.117-2.016-.117-2.375 0-4.391.562-6.047 1.688-1.656 1.125-2.82 2.852-3.492 5.18l.023 16.219h-2.906v-25.359h2.695l.188 4.406v.516c1.031-1.672 2.398-2.988 4.102-3.949 1.703-.961 3.672-1.441 5.906-1.441zm21.375-6.023v6.492h9.398v2.297h-9.398v15.961c.016.984.168 1.801.457 2.449.289.648.68 1.172 1.172 1.57.492.398 1.07.684 1.734.855.664.172 1.387.258 2.168.258.781 0 1.582-.055 2.402-.164.82-.109 1.52-.219 2.098-.328l.422 2.133c-.672.266-1.492.465-2.461.598-.969.133-1.953.199-2.953.199-1.125 0-2.164-.137-3.117-.41-.953-.273-1.781-.711-2.484-1.313-.703-.602-1.258-1.383-1.664-2.344-.406-.961-.617-2.137-.633-3.527v-15.938h-7.055v-2.297h7.055v-6.492h2.859zm39.633 34.219h-20.648v-2.367h20.648v2.367z"/></g></svg>