<svg width="280" height="80" viewBox="0 0 280 80" xmlns="http://www.w3.org/2000/svg" xmlns:sketch="http://www.bohemiancoding.com/sketch/ns"><title>thumb-ekonomija</title><desc>Created with Sketch.</desc><g sketch:type="MSShapeGroup" fill="#000"><path d="M3 76.385h273v-73h-273v73zm276.078 3.1h-279.078v-79.1h279.078v79.1z"/><path d="M35.729 42.686h-13.166v12.182h15.176v2.133h-17.616v-29.859h17.534v2.153h-15.094v11.259h13.166v2.133zm15.524 3.097l-3.138 2.81v8.408h-2.481v-31.5h2.481v20.262l2.646-2.604 9.003-8.347h3.138l-9.905 9.352 10.931 12.838h-3.158l-9.516-11.218zm17.842-.205c.014-1.504.246-2.933.697-4.286.451-1.354 1.097-2.54 1.938-3.558.841-1.019 1.873-1.829 3.097-2.43 1.224-.602 2.608-.902 4.153-.902 1.559 0 2.95.301 4.173.902 1.224.602 2.259 1.412 3.107 2.43.848 1.019 1.497 2.205 1.948 3.558.451 1.354.684 2.782.697 4.286v.677c-.014 1.504-.243 2.933-.687 4.286-.444 1.354-1.09 2.54-1.938 3.558-.848 1.019-1.88 1.825-3.097 2.42s-2.604.892-4.163.892c-1.559 0-2.95-.297-4.173-.892-1.224-.595-2.259-1.401-3.107-2.42-.848-1.019-1.497-2.205-1.948-3.558-.451-1.354-.684-2.782-.697-4.286v-.677zm2.461.677c0 1.176.164 2.311.492 3.404.328 1.094.807 2.061 1.436 2.902.629.841 1.405 1.514 2.328 2.02.923.506 1.993.759 3.209.759 1.203 0 2.266-.253 3.189-.759s1.695-1.179 2.317-2.02c.622-.841 1.097-1.808 1.425-2.902.328-1.094.492-2.229.492-3.404v-.677c0-1.162-.164-2.29-.492-3.384-.328-1.094-.807-2.061-1.436-2.902-.629-.841-1.408-1.518-2.338-2.03-.93-.513-1.996-.769-3.199-.769-1.203 0-2.266.256-3.189.769s-1.695 1.189-2.317 2.03c-.622.841-1.097 1.808-1.425 2.902-.328 1.094-.492 2.222-.492 3.384v.677zm26.271-11.443l.185 4.163c.779-1.381 1.818-2.485 3.117-3.312s2.775-1.248 4.43-1.261c2.434 0 4.293.728 5.578 2.184 1.285 1.456 1.935 3.524 1.948 6.204v14.212h-2.461v-14.171c-.014-2.037-.479-3.599-1.395-4.686-.916-1.087-2.338-1.624-4.266-1.61-.793 0-1.548.13-2.266.39s-1.374.615-1.969 1.066c-.595.451-1.121.984-1.579 1.6-.458.615-.831 1.285-1.118 2.01v15.401h-2.461v-22.189h2.256zm21.677 10.767c.014-1.504.246-2.933.697-4.286.451-1.354 1.097-2.54 1.938-3.558.841-1.019 1.873-1.829 3.097-2.43 1.224-.602 2.608-.902 4.153-.902 1.559 0 2.95.301 4.173.902 1.224.602 2.259 1.412 3.107 2.43.848 1.019 1.497 2.205 1.948 3.558.451 1.354.684 2.782.697 4.286v.677c-.014 1.504-.243 2.933-.687 4.286-.444 1.354-1.09 2.54-1.938 3.558-.848 1.019-1.88 1.825-3.097 2.42s-2.604.892-4.163.892c-1.559 0-2.95-.297-4.173-.892-1.224-.595-2.259-1.401-3.107-2.42-.848-1.019-1.497-2.205-1.948-3.558-.451-1.354-.684-2.782-.697-4.286v-.677zm2.461.677c0 1.176.164 2.311.492 3.404.328 1.094.807 2.061 1.436 2.902.629.841 1.405 1.514 2.328 2.02.923.506 1.993.759 3.209.759 1.203 0 2.266-.253 3.189-.759s1.695-1.179 2.317-2.02c.622-.841 1.097-1.808 1.425-2.902.328-1.094.492-2.229.492-3.404v-.677c0-1.162-.164-2.29-.492-3.384-.328-1.094-.807-2.061-1.436-2.902-.629-.841-1.408-1.518-2.338-2.03-.93-.513-1.996-.769-3.199-.769-1.203 0-2.266.256-3.189.769s-1.695 1.189-2.317 2.03c-.622.841-1.097 1.808-1.425 2.902-.328 1.094-.492 2.222-.492 3.384v.677zm24.097-11.443l.062 2.481c.451-.861 1.07-1.555 1.856-2.082.786-.526 1.781-.796 2.984-.81.629 0 1.186.072 1.671.215.485.144.906.345 1.261.605.355.26.656.571.902.933.246.362.444.755.595 1.179.465-.834 1.104-1.528 1.917-2.082.813-.554 1.829-.837 3.045-.851.957 0 1.757.164 2.399.492.643.328 1.162.772 1.559 1.333.396.561.68 1.21.851 1.948.171.738.256 1.518.256 2.338l-.021 16.488h-2.297l-.021-16.488c0-.479-.048-.957-.144-1.436-.096-.479-.263-.909-.502-1.292s-.574-.69-1.005-.923c-.431-.232-.981-.342-1.651-.328-.684.014-1.261.123-1.733.328-.472.205-.861.472-1.169.8-.308.328-.547.694-.718 1.097-.171.403-.297.81-.379 1.22l-.021 17.021h-2.297l-.021-16.714c0-.465-.048-.923-.144-1.374-.096-.451-.263-.854-.502-1.21-.239-.355-.571-.643-.995-.861-.424-.219-.964-.321-1.62-.308-.656.014-1.213.116-1.671.308-.458.191-.841.448-1.148.769-.308.321-.554.69-.738 1.107-.185.417-.332.851-.441 1.302l-.021 16.98h-2.317v-22.189h2.215zm25.696 0h10.295v20.016h7.547v2.174h-17.842v-2.174h7.834v-17.821h-7.834v-2.194zm7.116-6.07c0-.506.144-.943.431-1.313.287-.369.766-.554 1.436-.554.656 0 1.131.185 1.425.554.294.369.441.807.441 1.313 0 .479-.147.899-.441 1.261-.294.362-.769.543-1.425.543-.67 0-1.148-.181-1.436-.543-.287-.362-.431-.783-.431-1.261zm19.729 6.07h10.459v22.189c0 1.395-.188 2.646-.564 3.753-.376 1.107-.923 2.047-1.641 2.82-.718.772-1.596 1.364-2.635 1.774-1.039.41-2.222.615-3.548.615-.779 0-1.494-.024-2.143-.072-.649-.048-1.35-.14-2.102-.277l.164-2.03c.246.041.55.079.913.113.362.034.731.062 1.107.082.376.021.735.034 1.077.041l.82.01c.82 0 1.6-.116 2.338-.349.738-.232 1.384-.619 1.938-1.159s.995-1.244 1.323-2.112c.328-.868.492-1.938.492-3.209v-19.995h-7.998v-2.194zm7.198-6.091c0-.506.14-.94.42-1.302.28-.362.755-.543 1.425-.543.656 0 1.135.181 1.436.543.301.362.451.796.451 1.302 0 .479-.15.899-.451 1.261-.301.362-.779.543-1.436.543-.67 0-1.145-.181-1.425-.543-.28-.362-.42-.783-.42-1.261zm31.049 28.28c-.15-.451-.267-.954-.349-1.507-.082-.554-.137-1.118-.164-1.692-.424.52-.916.998-1.477 1.436-.561.438-1.172.817-1.835 1.138-.663.321-1.377.574-2.143.759-.766.185-1.565.277-2.399.277-1.039 0-2.006-.15-2.902-.451-.896-.301-1.675-.725-2.338-1.271-.663-.547-1.183-1.207-1.559-1.979-.376-.772-.564-1.637-.564-2.594 0-1.271.28-2.352.841-3.24.561-.889 1.319-1.61 2.276-2.164.957-.554 2.064-.96 3.322-1.22s2.577-.39 3.958-.39h4.799v-2.522c-.014-.834-.178-1.569-.492-2.205-.314-.636-.742-1.169-1.282-1.6-.54-.431-1.183-.755-1.928-.974-.745-.219-1.555-.328-2.43-.328-.793 0-1.548.103-2.266.308-.718.205-1.354.499-1.907.882-.554.383-1.001.851-1.343 1.405-.342.554-.526 1.179-.554 1.876l-2.461-.021c.041-.943.291-1.812.749-2.604.458-.793 1.077-1.48 1.856-2.061.779-.581 1.685-1.036 2.717-1.364 1.032-.328 2.136-.492 3.312-.492 1.176 0 2.28.15 3.312.451 1.032.301 1.928.752 2.687 1.354.759.602 1.36 1.354 1.805 2.256.444.902.673 1.955.687 3.158v10.746c0 .738.065 1.483.195 2.235.13.752.291 1.47.482 2.153l.021.246h-2.625zm-8.101-1.764c.861.014 1.685-.089 2.471-.308s1.507-.523 2.164-.913c.656-.39 1.237-.854 1.743-1.395.506-.54.902-1.131 1.189-1.774v-4.86h-4.471c-1.08 0-2.119.082-3.117.246-.998.164-1.88.434-2.646.81-.766.376-1.377.878-1.835 1.507-.458.629-.687 1.415-.687 2.358 0 .67.137 1.271.41 1.805.273.533.643.988 1.107 1.364.465.376 1.012.663 1.641.861.629.198 1.306.297 2.03.297zm35.704 3.835h-18.067v-2.071h18.067v2.071z"/></g></svg>