<svg width="280" height="80" viewBox="0 0 280 80" xmlns="http://www.w3.org/2000/svg" xmlns:sketch="http://www.bohemiancoding.com/sketch/ns"><title>thumb-drustvo</title><desc>Created with Sketch.</desc><g sketch:type="MSShapeGroup" fill="#000"><path d="M3 76.385h273v-73h-273v73zm276.078 3.1h-279.078v-79.1h279.078v79.1z"/><path d="M32.148 57v-34.125h8.25c2.188.031 4.141.461 5.859 1.289 1.719.828 3.172 1.937 4.359 3.328 1.188 1.391 2.094 3.012 2.719 4.863.625 1.852.953 3.824.984 5.918v3.352c-.031 2.094-.359 4.066-.984 5.918-.625 1.852-1.531 3.473-2.719 4.863-1.188 1.391-2.641 2.496-4.359 3.316-1.719.82-3.672 1.246-5.859 1.277h-8.25zm2.813-31.734v29.367h5.438c1.828-.031 3.434-.406 4.816-1.125 1.383-.719 2.535-1.676 3.457-2.871.922-1.195 1.621-2.57 2.098-4.125.477-1.555.723-3.184.738-4.887v-3.422c-.016-1.688-.262-3.305-.738-4.852-.477-1.547-1.176-2.914-2.098-4.102-.922-1.188-2.074-2.141-3.457-2.859-1.383-.719-2.988-1.094-4.816-1.125h-5.438zm43.148 5.906c.703 0 1.406.043 2.109.129.703.086 1.289.207 1.758.363l-.352 2.695c-.656-.141-1.312-.25-1.969-.328-.656-.078-1.328-.117-2.016-.117-2.375 0-4.391.562-6.047 1.688-1.656 1.125-2.82 2.852-3.492 5.18l.023 16.219h-2.906v-25.359h2.695l.188 4.406v.516c1.031-1.672 2.398-2.988 4.102-3.949 1.703-.961 3.672-1.441 5.906-1.441zm29.039 21.867c-.844 1.391-1.957 2.477-3.34 3.258-1.383.781-3.02 1.172-4.91 1.172-1.406 0-2.645-.227-3.715-.68-1.07-.453-1.969-1.117-2.695-1.992-.727-.875-1.281-1.945-1.664-3.211-.383-1.266-.574-2.711-.574-4.336v-15.609h2.789v15.656c.031 2.547.547 4.477 1.547 5.789 1 1.313 2.547 1.969 4.641 1.969 2.109 0 3.82-.484 5.133-1.453 1.313-.969 2.227-2.281 2.742-3.938l-.023-18.023h2.836v25.359h-2.625l-.141-3.961zm29.484-2.484c0-.781-.195-1.461-.586-2.039-.391-.578-.926-1.074-1.605-1.488-.68-.414-1.465-.762-2.355-1.043-.891-.281-1.836-.523-2.836-.727-1.219-.25-2.398-.551-3.539-.902-1.141-.352-2.156-.801-3.047-1.348s-1.602-1.215-2.133-2.004c-.531-.789-.797-1.762-.797-2.918 0-1.094.273-2.07.82-2.93.547-.859 1.266-1.586 2.156-2.18.891-.594 1.906-1.043 3.047-1.348 1.141-.305 2.312-.457 3.516-.457 1.375 0 2.66.168 3.855.504 1.195.336 2.242.828 3.141 1.477.898.648 1.613 1.441 2.145 2.379.531.938.82 2.008.867 3.211h-2.813c-.031-.813-.25-1.543-.656-2.191-.406-.648-.945-1.191-1.617-1.629-.672-.438-1.434-.773-2.285-1.008-.852-.234-1.73-.352-2.637-.352-.844 0-1.668.09-2.473.27-.805.18-1.523.453-2.156.82-.633.367-1.141.828-1.523 1.383-.383.555-.574 1.207-.574 1.957-.016.797.168 1.465.551 2.004.383.539.902.992 1.559 1.359.656.367 1.426.672 2.309.914.883.242 1.824.465 2.824.668 1.281.266 2.504.59 3.668.973 1.164.383 2.191.859 3.082 1.43.891.57 1.594 1.27 2.109 2.098.516.828.773 1.82.773 2.977 0 1.188-.285 2.223-.855 3.105-.57.883-1.32 1.617-2.25 2.203-.93.586-1.992 1.023-3.188 1.313-1.195.289-2.426.434-3.691.434-1.422 0-2.762-.172-4.02-.516-1.258-.344-2.367-.84-3.328-1.488-.961-.648-1.73-1.441-2.309-2.379-.578-.938-.891-2-.938-3.188h2.813c.094 1 .395 1.836.902 2.508.508.672 1.133 1.207 1.875 1.605.742.398 1.551.68 2.426.844.875.164 1.734.246 2.578.246.859 0 1.715-.09 2.566-.27.852-.18 1.617-.453 2.297-.82.68-.367 1.234-.836 1.664-1.406.43-.57.652-1.254.668-2.051zm-7.266-25.078l4.055-4.336h2.484v.352l-5.531 5.836h-2.016l-5.531-5.813v-.375h2.508l4.031 4.336zm27.727-.328v6.492h9.398v2.297h-9.398v15.961c.016.984.168 1.801.457 2.449.289.648.68 1.172 1.172 1.57.492.398 1.07.684 1.734.855.664.172 1.387.258 2.168.258.781 0 1.582-.055 2.402-.164.82-.109 1.52-.219 2.098-.328l.422 2.133c-.672.266-1.492.465-2.461.598-.969.133-1.953.199-2.953.199-1.125 0-2.164-.137-3.117-.41-.953-.273-1.781-.711-2.484-1.313-.703-.602-1.258-1.383-1.664-2.344-.406-.961-.617-2.137-.633-3.527v-15.938h-7.055v-2.297h7.055v-6.492h2.859zm29.18 28.055l.117.492.141-.492 8.719-21.563h2.93l-10.664 25.359h-2.297l-10.688-25.359h2.93l8.813 21.563zm17.625-9.258c.016-1.719.281-3.352.797-4.898.516-1.547 1.254-2.902 2.215-4.066.961-1.164 2.141-2.09 3.539-2.777 1.398-.688 2.98-1.031 4.746-1.031 1.781 0 3.371.344 4.77 1.031 1.398.688 2.582 1.613 3.551 2.777.969 1.164 1.711 2.52 2.227 4.066.516 1.547.781 3.18.797 4.898v.773c-.016 1.719-.277 3.352-.785 4.898-.508 1.547-1.246 2.902-2.215 4.066-.969 1.164-2.148 2.086-3.539 2.766-1.391.68-2.977 1.02-4.758 1.02-1.781 0-3.371-.34-4.77-1.02-1.398-.68-2.582-1.602-3.551-2.766-.969-1.164-1.711-2.52-2.227-4.066-.516-1.547-.781-3.18-.797-4.898v-.773zm2.813.773c0 1.344.187 2.641.563 3.891.375 1.25.922 2.355 1.641 3.316.719.961 1.605 1.73 2.66 2.309 1.055.578 2.277.867 3.668.867 1.375 0 2.59-.289 3.645-.867 1.055-.578 1.937-1.348 2.648-2.309.711-.961 1.254-2.066 1.629-3.316s.563-2.547.563-3.891v-.773c0-1.328-.187-2.617-.563-3.867-.375-1.25-.922-2.355-1.641-3.316-.719-.961-1.609-1.734-2.672-2.32-1.063-.586-2.281-.879-3.656-.879s-2.59.293-3.645.879c-1.055.586-1.937 1.359-2.648 2.32-.711.961-1.254 2.066-1.629 3.316s-.563 2.539-.563 3.867v.773zm47.625 14.648h-20.648v-2.367h20.648v2.367z"/></g></svg>