<svg width="280" height="80" viewBox="0 0 280 80" xmlns="http://www.w3.org/2000/svg" xmlns:sketch="http://www.bohemiancoding.com/sketch/ns"><title>thumb-svet</title><desc>Created with Sketch.</desc><g sketch:type="MSShapeGroup" fill="#000"><path d="M3 76.385h273v-73h-273v73zm276.078 3.1h-279.078v-79.1h279.078v79.1z"/><path d="M97.203 48.609c0-.797-.121-1.512-.363-2.145s-.578-1.199-1.008-1.699c-.43-.5-.926-.941-1.488-1.324-.563-.383-1.164-.723-1.805-1.02-.641-.297-1.297-.562-1.969-.797-.672-.234-1.32-.453-1.945-.656-.797-.25-1.605-.527-2.426-.832-.82-.305-1.617-.656-2.391-1.055-.773-.398-1.5-.852-2.18-1.359-.68-.508-1.273-1.082-1.781-1.723s-.906-1.355-1.195-2.145c-.289-.789-.434-1.668-.434-2.637 0-1.422.316-2.68.949-3.773.633-1.094 1.457-2.016 2.473-2.766 1.016-.75 2.16-1.316 3.434-1.699 1.273-.383 2.559-.574 3.855-.574 1.453 0 2.836.238 4.148.715 1.313.477 2.465 1.145 3.457 2.004s1.785 1.902 2.379 3.129c.594 1.227.914 2.59.961 4.09h-2.836c-.125-1.109-.398-2.121-.82-3.035-.422-.914-.984-1.699-1.688-2.355-.703-.656-1.527-1.168-2.473-1.535-.945-.367-1.988-.551-3.129-.551-.953 0-1.895.129-2.824.387-.93.258-1.766.648-2.508 1.172-.742.523-1.344 1.18-1.805 1.969-.461.789-.691 1.715-.691 2.777 0 1.141.27 2.109.809 2.906.539.797 1.223 1.469 2.051 2.016.828.547 1.738 1.004 2.73 1.371s1.934.684 2.824.949c.828.25 1.664.535 2.508.855.844.32 1.66.691 2.449 1.113.789.422 1.527.895 2.215 1.418.688.523 1.285 1.121 1.793 1.793.508.672.906 1.418 1.195 2.238.289.82.434 1.73.434 2.73 0 1.5-.324 2.805-.973 3.914-.648 1.109-1.488 2.035-2.52 2.777-1.031.742-2.203 1.297-3.516 1.664-1.313.367-2.641.551-3.984.551-1.5 0-2.953-.219-4.359-.656-1.406-.438-2.66-1.078-3.762-1.922-1.102-.844-1.996-1.887-2.684-3.129-.688-1.242-1.055-2.66-1.102-4.254h2.836c.141 1.219.465 2.301.973 3.246.508.945 1.16 1.734 1.957 2.367.797.633 1.719 1.109 2.766 1.43 1.047.32 2.172.48 3.375.48 1 0 1.98-.125 2.941-.375.961-.25 1.824-.637 2.59-1.16.766-.523 1.383-1.187 1.852-1.992.469-.805.703-1.77.703-2.895zm19.852 4.594l.117.492.141-.492 8.719-21.563h2.93l-10.664 25.359h-2.297l-10.688-25.359h2.93l8.813 21.563zm29.906 4.266c-1.766 0-3.375-.328-4.828-.984-1.453-.656-2.699-1.547-3.738-2.672-1.039-1.125-1.844-2.441-2.414-3.949-.57-1.508-.863-3.113-.879-4.816v-1.008c.016-1.813.316-3.5.902-5.063.586-1.563 1.387-2.922 2.402-4.078 1.016-1.156 2.211-2.066 3.586-2.73 1.375-.664 2.852-.996 4.43-.996 1.688 0 3.18.305 4.477.914 1.297.609 2.387 1.441 3.27 2.496s1.555 2.285 2.016 3.691c.461 1.406.699 2.914.715 4.523v1.711h-18.984v.539c.016 1.328.242 2.598.68 3.809.438 1.211 1.055 2.277 1.852 3.199.797.922 1.758 1.66 2.883 2.215 1.125.555 2.375.832 3.75.832 1.563.016 2.977-.273 4.242-.867 1.266-.594 2.344-1.453 3.234-2.578l1.781 1.336c-.469.656-1.023 1.262-1.664 1.816-.641.555-1.355 1.027-2.145 1.418-.789.391-1.652.695-2.59.914-.938.219-1.93.328-2.977.328zm-.539-23.906c-1.141 0-2.187.215-3.141.645-.953.43-1.789 1.027-2.508 1.793-.719.766-1.312 1.668-1.781 2.707-.469 1.039-.789 2.176-.961 3.41h16.055v-.305c-.031-1.047-.223-2.066-.574-3.059-.352-.992-.852-1.871-1.5-2.637s-1.441-1.383-2.379-1.852c-.938-.469-2.008-.703-3.211-.703zm27.867-8.414v6.492h9.398v2.297h-9.398v15.961c.016.984.168 1.801.457 2.449.289.648.68 1.172 1.172 1.57.492.398 1.07.684 1.734.855.664.172 1.387.258 2.168.258.781 0 1.582-.055 2.402-.164.82-.109 1.52-.219 2.098-.328l.422 2.133c-.672.266-1.492.465-2.461.598-.969.133-1.953.199-2.953.199-1.125 0-2.164-.137-3.117-.41-.953-.273-1.781-.711-2.484-1.313-.703-.602-1.258-1.383-1.664-2.344-.406-.961-.617-2.137-.633-3.527v-15.938h-7.055v-2.297h7.055v-6.492h2.859zm39.633 34.219h-20.648v-2.367h20.648v2.367z"/></g></svg>