<svg width="280" height="80" viewBox="0 0 280 80" xmlns="http://www.w3.org/2000/svg" xmlns:sketch="http://www.bohemiancoding.com/sketch/ns"><title>thumb-tehnologija</title><desc>Created with Sketch.</desc><g sketch:type="MSShapeGroup" fill="#000"><path d="M3 76.385h273v-73h-273v73zm276.078 3.1h-279.078v-79.1h279.078v79.1z"/><path d="M32.021 30.252h-8.156v23.748h-2.057l.018-23.748h-8.174v-1.846h18.369v1.846zm13.096 24.1c-1.324 0-2.531-.246-3.621-.738-1.09-.492-2.024-1.16-2.804-2.004-.779-.844-1.383-1.831-1.811-2.962-.428-1.131-.647-2.335-.659-3.612v-.756c.012-1.359.237-2.625.677-3.797.439-1.172 1.04-2.191 1.802-3.059.762-.867 1.658-1.55 2.689-2.048 1.031-.498 2.139-.747 3.322-.747 1.266 0 2.385.229 3.357.686.973.457 1.79 1.081 2.452 1.872.662.791 1.166 1.714 1.512 2.769.346 1.055.524 2.186.536 3.393v1.283h-14.238v.404c.012.996.182 1.948.51 2.856.328.908.791 1.708 1.389 2.399.598.691 1.318 1.245 2.162 1.661.844.416 1.781.624 2.813.624 1.172.012 2.232-.205 3.182-.65.949-.445 1.758-1.09 2.426-1.934l1.336 1.002c-.352.492-.768.946-1.248 1.362-.48.416-1.017.771-1.608 1.063-.592.293-1.239.521-1.942.686-.703.164-1.447.246-2.232.246zm-.404-17.93c-.855 0-1.641.161-2.355.483-.715.322-1.342.771-1.881 1.345-.539.574-.984 1.251-1.336 2.03-.352.779-.592 1.632-.721 2.558h12.041v-.229c-.023-.785-.167-1.55-.431-2.294s-.639-1.403-1.125-1.978c-.486-.574-1.081-1.037-1.784-1.389-.703-.352-1.506-.527-2.408-.527zm15.996 2.232c.668-1.219 1.559-2.191 2.672-2.918 1.113-.727 2.385-1.096 3.814-1.107 1.043 0 1.966.161 2.769.483.803.322 1.477.791 2.021 1.406.545.615.961 1.371 1.248 2.268.287.896.431 1.919.431 3.067v12.146h-2.109v-12.146c0-.844-.1-1.6-.299-2.268-.199-.668-.501-1.233-.905-1.696-.404-.463-.911-.817-1.521-1.063-.609-.246-1.324-.369-2.145-.369-.668 0-1.307.105-1.916.316-.609.211-1.172.504-1.688.879s-.976.817-1.38 1.327c-.404.51-.735 1.069-.993 1.679v13.342h-2.109v-27h2.109v11.654zm21.428-3.674l.158 3.568c.668-1.184 1.559-2.13 2.672-2.839 1.113-.709 2.379-1.069 3.797-1.081 2.086 0 3.68.624 4.781 1.872 1.102 1.248 1.658 3.02 1.67 5.317v12.182h-2.109v-12.146c-.012-1.746-.41-3.085-1.195-4.017-.785-.932-2.004-1.392-3.656-1.38-.68 0-1.327.111-1.942.334-.615.223-1.178.527-1.688.914s-.961.844-1.354 1.371c-.393.527-.712 1.102-.958 1.723v13.201h-2.109v-19.02h1.934zm18.58 9.229c.012-1.289.211-2.514.598-3.674.387-1.16.94-2.177 1.661-3.05.721-.873 1.605-1.567 2.654-2.083 1.049-.516 2.235-.773 3.56-.773 1.336 0 2.528.258 3.577.773 1.049.516 1.937 1.21 2.663 2.083.727.873 1.283 1.89 1.67 3.05s.586 2.385.598 3.674v.58c-.012 1.289-.208 2.514-.589 3.674-.381 1.16-.935 2.177-1.661 3.05-.727.873-1.611 1.564-2.654 2.074-1.043.51-2.232.765-3.568.765-1.336 0-2.528-.255-3.577-.765s-1.937-1.201-2.663-2.074c-.727-.873-1.283-1.89-1.67-3.05s-.586-2.385-.598-3.674v-.58zm2.109.58c0 1.008.141 1.98.422 2.918.281.938.691 1.767 1.23 2.487.539.721 1.204 1.298 1.995 1.731.791.434 1.708.65 2.751.65 1.031 0 1.942-.217 2.733-.65.791-.434 1.453-1.011 1.986-1.731.533-.721.94-1.55 1.222-2.487.281-.938.422-1.91.422-2.918v-.58c0-.996-.141-1.963-.422-2.9-.281-.938-.691-1.767-1.23-2.487-.539-.721-1.207-1.301-2.004-1.74-.797-.439-1.711-.659-2.742-.659s-1.942.22-2.733.659c-.791.439-1.453 1.02-1.986 1.74-.533.721-.94 1.55-1.222 2.487-.281.938-.422 1.904-.422 2.9v.58zm21.076-17.789h8.859v25.137h6.434v1.863h-15.293v-1.863h6.75v-23.256h-6.75v-1.881zm20.021 17.209c.012-1.289.211-2.514.598-3.674.387-1.16.94-2.177 1.661-3.05.721-.873 1.605-1.567 2.654-2.083 1.049-.516 2.235-.773 3.56-.773 1.336 0 2.528.258 3.577.773 1.049.516 1.937 1.21 2.663 2.083.727.873 1.283 1.89 1.67 3.05s.586 2.385.598 3.674v.58c-.012 1.289-.208 2.514-.589 3.674-.381 1.16-.935 2.177-1.661 3.05-.727.873-1.611 1.564-2.654 2.074-1.043.51-2.232.765-3.568.765-1.336 0-2.528-.255-3.577-.765s-1.937-1.201-2.663-2.074c-.727-.873-1.283-1.89-1.67-3.05s-.586-2.385-.598-3.674v-.58zm2.109.58c0 1.008.141 1.98.422 2.918.281.938.691 1.767 1.23 2.487.539.721 1.204 1.298 1.995 1.731.791.434 1.708.65 2.751.65 1.031 0 1.942-.217 2.733-.65.791-.434 1.453-1.011 1.986-1.731.533-.721.94-1.55 1.222-2.487.281-.938.422-1.91.422-2.918v-.58c0-.996-.141-1.963-.422-2.9-.281-.938-.691-1.767-1.23-2.487-.539-.721-1.207-1.301-2.004-1.74-.797-.439-1.711-.659-2.742-.659s-1.942.22-2.733.659c-.791.439-1.453 1.02-1.986 1.74-.533.721-.94 1.55-1.222 2.487-.281.938-.422 1.904-.422 2.9v.58zm19.986-.475c0-1.266.152-2.481.457-3.647.305-1.166.771-2.197 1.397-3.094.627-.896 1.412-1.611 2.355-2.145.943-.533 2.06-.8 3.349-.8 1.219 0 2.312.261 3.278.782.967.521 1.772 1.257 2.417 2.206l.088-2.637h1.969v18.686c-.012 1.16-.193 2.227-.545 3.199-.352.973-.858 1.808-1.521 2.505-.662.697-1.462 1.239-2.399 1.626-.938.387-1.992.58-3.164.58-.563 0-1.148-.064-1.758-.193-.609-.129-1.207-.328-1.793-.598-.586-.27-1.146-.606-1.679-1.011-.533-.404-.999-.888-1.397-1.45l1.178-1.266c1.512 1.828 3.281 2.742 5.309 2.742.902 0 1.705-.146 2.408-.439.703-.293 1.292-.706 1.767-1.239.475-.533.838-1.172 1.09-1.916.252-.744.384-1.562.396-2.452v-2.162c-.668.891-1.485 1.573-2.452 2.048-.967.475-2.042.712-3.226.712-1.266 0-2.37-.272-3.313-.817-.943-.545-1.726-1.266-2.347-2.162-.621-.896-1.087-1.928-1.397-3.094-.311-1.166-.466-2.364-.466-3.595v-.369zm2.109.369c0 .949.103 1.893.308 2.83.205.938.536 1.778.993 2.522.457.744 1.055 1.345 1.793 1.802.738.457 1.641.686 2.707.686.598 0 1.166-.079 1.705-.237.539-.158 1.034-.384 1.485-.677.451-.293.855-.647 1.213-1.063.357-.416.653-.882.888-1.397v-9.053c-.234-.527-.521-1.014-.861-1.459-.34-.445-.732-.829-1.178-1.151-.445-.322-.937-.574-1.477-.756-.539-.182-1.119-.272-1.74-.272-1.078 0-1.986.231-2.725.694-.738.463-1.339 1.066-1.802 1.811-.463.744-.797 1.585-1.002 2.522-.205.938-.308 1.881-.308 2.83v.369zm20.584-9.703h8.824v17.156h6.469v1.863h-15.293v-1.863h6.715v-15.275h-6.715v-1.881zm6.1-5.203c0-.434.123-.809.369-1.125.246-.316.656-.475 1.23-.475.563 0 .97.158 1.222.475.252.316.378.691.378 1.125 0 .41-.126.771-.378 1.081-.252.311-.659.466-1.222.466-.574 0-.984-.155-1.23-.466-.246-.311-.369-.671-.369-1.081zm16.91 5.203h8.965v19.02c0 1.195-.161 2.268-.483 3.217-.322.949-.791 1.755-1.406 2.417-.615.662-1.368 1.169-2.259 1.521-.891.352-1.904.527-3.041.527-.668 0-1.28-.021-1.837-.062-.557-.041-1.157-.12-1.802-.237l.141-1.74c.211.035.472.067.782.097.311.029.627.053.949.07.322.018.63.029.923.035l.703.009c.703 0 1.371-.1 2.004-.299.633-.199 1.187-.53 1.661-.993.475-.463.853-1.066 1.134-1.811.281-.744.422-1.661.422-2.751v-17.139h-6.855v-1.881zm6.17-5.221c0-.434.12-.806.36-1.116.24-.311.647-.466 1.222-.466.563 0 .973.155 1.23.466.258.311.387.683.387 1.116 0 .41-.129.771-.387 1.081-.258.311-.668.466-1.23.466-.574 0-.981-.155-1.222-.466-.24-.311-.36-.671-.36-1.081zm26.613 24.24c-.129-.387-.229-.817-.299-1.292-.07-.475-.117-.958-.141-1.45-.363.445-.785.855-1.266 1.23-.48.375-1.005.7-1.573.976-.568.275-1.181.492-1.837.65-.656.158-1.342.237-2.057.237-.891 0-1.72-.129-2.487-.387-.768-.258-1.436-.621-2.004-1.09-.568-.469-1.014-1.034-1.336-1.696-.322-.662-.483-1.403-.483-2.224 0-1.09.24-2.016.721-2.777.48-.762 1.131-1.38 1.951-1.854.82-.475 1.77-.823 2.848-1.046 1.078-.223 2.209-.334 3.393-.334h4.113v-2.162c-.012-.715-.152-1.345-.422-1.89-.27-.545-.636-1.002-1.099-1.371-.463-.369-1.014-.647-1.652-.835-.639-.188-1.333-.281-2.083-.281-.68 0-1.327.088-1.942.264-.615.176-1.16.428-1.635.756-.475.328-.858.729-1.151 1.204-.293.475-.451 1.011-.475 1.608l-2.109-.018c.035-.809.249-1.553.642-2.232.393-.68.923-1.269 1.591-1.767.668-.498 1.444-.888 2.329-1.169.885-.281 1.831-.422 2.839-.422s1.954.129 2.839.387 1.652.645 2.303 1.16c.65.516 1.166 1.16 1.547 1.934.381.773.577 1.676.589 2.707v9.211c0 .633.056 1.271.167 1.916.111.645.249 1.26.413 1.846l.018.211h-2.25zm-6.943-1.512c.738.012 1.444-.076 2.118-.264.674-.188 1.292-.448 1.854-.782.563-.334 1.061-.732 1.494-1.195.434-.463.773-.97 1.02-1.521v-4.166h-3.832c-.926 0-1.816.07-2.672.211-.855.141-1.611.372-2.268.694-.656.322-1.181.753-1.573 1.292-.393.539-.589 1.213-.589 2.021 0 .574.117 1.09.352 1.547.234.457.551.847.949 1.169.398.322.867.568 1.406.738.539.17 1.119.255 1.74.255zm30.604 3.287h-15.486v-1.775h15.486v1.775z"/></g></svg>