<svg width="280" height="80" viewBox="0 0 280 80" xmlns="http://www.w3.org/2000/svg" xmlns:sketch="http://www.bohemiancoding.com/sketch/ns"><title>thumb-kultura</title><desc>Created with Sketch.</desc><g sketch:type="MSShapeGroup" fill="#000"><path d="M3 76.385h273v-73h-273v73zm276.078 3.1h-279.078v-79.1h279.078v79.1z"/><path d="M39.906 40.102l-4.383 4.664v12.234h-2.836v-34.125h2.836v18.258l4.195-4.828 11.531-13.43h3.492l-12.938 15.164 13.875 18.961h-3.422l-12.352-16.898zm38.438 12.938c-.844 1.391-1.957 2.477-3.34 3.258-1.383.781-3.02 1.172-4.91 1.172-1.406 0-2.645-.227-3.715-.68-1.07-.453-1.969-1.117-2.695-1.992-.727-.875-1.281-1.945-1.664-3.211-.383-1.266-.574-2.711-.574-4.336v-15.609h2.789v15.656c.031 2.547.547 4.477 1.547 5.789 1 1.313 2.547 1.969 4.641 1.969 2.109 0 3.82-.484 5.133-1.453 1.313-.969 2.227-2.281 2.742-3.938l-.023-18.023h2.836v25.359h-2.625l-.141-3.961zm12.445-32.039h11.812v33.516h8.578v2.484h-20.391v-2.484h9v-31.008h-9v-2.508zm37.5 4.148v6.492h9.398v2.297h-9.398v15.961c.016.984.168 1.801.457 2.449.289.648.68 1.172 1.172 1.57.492.398 1.07.684 1.734.855.664.172 1.387.258 2.168.258.781 0 1.582-.055 2.402-.164.82-.109 1.52-.219 2.098-.328l.422 2.133c-.672.266-1.492.465-2.461.598-.969.133-1.953.199-2.953.199-1.125 0-2.164-.137-3.117-.41-.953-.273-1.781-.711-2.484-1.313-.703-.602-1.258-1.383-1.664-2.344-.406-.961-.617-2.137-.633-3.527v-15.938h-7.055v-2.297h7.055v-6.492h2.859zm36.469 27.891c-.844 1.391-1.957 2.477-3.34 3.258-1.383.781-3.02 1.172-4.91 1.172-1.406 0-2.645-.227-3.715-.68-1.07-.453-1.969-1.117-2.695-1.992-.727-.875-1.281-1.945-1.664-3.211-.383-1.266-.574-2.711-.574-4.336v-15.609h2.789v15.656c.031 2.547.547 4.477 1.547 5.789 1 1.313 2.547 1.969 4.641 1.969 2.109 0 3.82-.484 5.133-1.453 1.313-.969 2.227-2.281 2.742-3.938l-.023-18.023h2.836v25.359h-2.625l-.141-3.961zm28.57-21.867c.703 0 1.406.043 2.109.129.703.086 1.289.207 1.758.363l-.352 2.695c-.656-.141-1.312-.25-1.969-.328-.656-.078-1.328-.117-2.016-.117-2.375 0-4.391.562-6.047 1.688-1.656 1.125-2.82 2.852-3.492 5.18l.023 16.219h-2.906v-25.359h2.695l.188 4.406v.516c1.031-1.672 2.398-2.988 4.102-3.949 1.703-.961 3.672-1.441 5.906-1.441zm29.461 25.828c-.172-.516-.305-1.09-.398-1.723-.094-.633-.156-1.277-.188-1.934-.484.594-1.047 1.141-1.688 1.641s-1.34.934-2.098 1.301c-.758.367-1.574.656-2.449.867-.875.211-1.789.316-2.742.316-1.188 0-2.293-.172-3.316-.516-1.023-.344-1.914-.828-2.672-1.453-.758-.625-1.352-1.379-1.781-2.262-.43-.883-.645-1.871-.645-2.965 0-1.453.32-2.687.961-3.703s1.508-1.84 2.602-2.473c1.094-.633 2.359-1.098 3.797-1.395 1.438-.297 2.945-.445 4.523-.445h5.484v-2.883c-.016-.953-.203-1.793-.563-2.52-.359-.727-.848-1.336-1.465-1.828-.617-.492-1.352-.863-2.203-1.113-.852-.25-1.777-.375-2.777-.375-.906 0-1.77.117-2.59.352-.82.234-1.547.57-2.18 1.008-.633.438-1.145.973-1.535 1.605-.391.633-.602 1.348-.633 2.145l-2.813-.023c.047-1.078.332-2.07.855-2.977.523-.906 1.23-1.691 2.121-2.355.891-.664 1.926-1.184 3.105-1.559 1.18-.375 2.441-.563 3.785-.563 1.344 0 2.605.172 3.785.516 1.18.344 2.203.859 3.07 1.547s1.555 1.547 2.063 2.578c.508 1.031.77 2.234.785 3.609v12.281c0 .844.074 1.695.223 2.555.148.859.332 1.68.551 2.461l.023.281h-3zm-9.258-2.016c.984.016 1.926-.102 2.824-.352.898-.25 1.723-.598 2.473-1.043.75-.445 1.414-.977 1.992-1.594.578-.617 1.031-1.293 1.359-2.027v-5.555h-5.109c-1.234 0-2.422.094-3.563.281-1.141.188-2.148.496-3.023.926-.875.43-1.574 1.004-2.098 1.723-.523.719-.785 1.617-.785 2.695 0 .766.156 1.453.469 2.063.313.609.734 1.129 1.266 1.559.531.43 1.156.758 1.875.984.719.227 1.492.34 2.32.34zm40.805 4.383h-20.648v-2.367h20.648v2.367z"/></g></svg>