<svg width="280" height="80" viewBox="0 0 280 80" xmlns="http://www.w3.org/2000/svg" xmlns:sketch="http://www.bohemiancoding.com/sketch/ns"><title>thumb-hronika</title><desc>Created with Sketch.</desc><g sketch:type="MSShapeGroup" fill="#000"><path d="M3 76.385h273v-73h-273v73zm276.078 3.1h-279.078v-79.1h279.078v79.1z"/><path d="M53.055 57h-2.648v-16.359h-16.031v16.359h-2.648v-34.125h2.648v15.328h16.031v-15.328h2.648v34.125zm25.055-25.828c.703 0 1.406.043 2.109.129.703.086 1.289.207 1.758.363l-.352 2.695c-.656-.141-1.312-.25-1.969-.328-.656-.078-1.328-.117-2.016-.117-2.375 0-4.391.562-6.047 1.688-1.656 1.125-2.82 2.852-3.492 5.18l.023 16.219h-2.906v-25.359h2.695l.188 4.406v.516c1.031-1.672 2.398-2.988 4.102-3.949 1.703-.961 3.672-1.441 5.906-1.441zm10.57 12.773c.016-1.719.281-3.352.797-4.898.516-1.547 1.254-2.902 2.215-4.066.961-1.164 2.141-2.09 3.539-2.777 1.398-.688 2.98-1.031 4.746-1.031 1.781 0 3.371.344 4.77 1.031 1.398.688 2.582 1.613 3.551 2.777.969 1.164 1.711 2.52 2.227 4.066.516 1.547.781 3.18.797 4.898v.773c-.016 1.719-.277 3.352-.785 4.898-.508 1.547-1.246 2.902-2.215 4.066-.969 1.164-2.148 2.086-3.539 2.766-1.391.68-2.977 1.02-4.758 1.02-1.781 0-3.371-.34-4.77-1.02-1.398-.68-2.582-1.602-3.551-2.766-.969-1.164-1.711-2.52-2.227-4.066-.516-1.547-.781-3.18-.797-4.898v-.773zm2.813.773c0 1.344.187 2.641.563 3.891.375 1.25.922 2.355 1.641 3.316.719.961 1.605 1.73 2.66 2.309 1.055.578 2.277.867 3.668.867 1.375 0 2.59-.289 3.645-.867 1.055-.578 1.937-1.348 2.648-2.309.711-.961 1.254-2.066 1.629-3.316s.563-2.547.563-3.891v-.773c0-1.328-.187-2.617-.563-3.867-.375-1.25-.922-2.355-1.641-3.316-.719-.961-1.609-1.734-2.672-2.32-1.063-.586-2.281-.879-3.656-.879s-2.59.293-3.645.879c-1.055.586-1.937 1.359-2.648 2.32-.711.961-1.254 2.066-1.629 3.316s-.563 2.539-.563 3.867v.773zm30.023-13.078l.211 4.758c.891-1.578 2.078-2.84 3.563-3.785 1.484-.945 3.172-1.426 5.063-1.441 2.781 0 4.906.832 6.375 2.496 1.469 1.664 2.211 4.027 2.227 7.09v16.242h-2.813v-16.195c-.016-2.328-.547-4.113-1.594-5.355-1.047-1.242-2.672-1.855-4.875-1.84-.906 0-1.77.148-2.59.445-.82.297-1.57.703-2.25 1.219-.68.516-1.281 1.125-1.805 1.828-.523.703-.949 1.469-1.277 2.297v17.602h-2.813v-25.359h2.578zm26.883 0h11.766v22.875h8.625v2.484h-20.391v-2.484h8.953v-20.367h-8.953v-2.508zm8.133-6.938c0-.578.164-1.078.492-1.5.328-.422.875-.633 1.641-.633.75 0 1.293.211 1.629.633.336.422.504.922.504 1.5 0 .547-.168 1.027-.504 1.441-.336.414-.879.621-1.629.621-.766 0-1.312-.207-1.641-.621-.328-.414-.492-.895-.492-1.441zm26.977 19.477l-3.586 3.211v9.609h-2.836v-36h2.836v23.156l3.023-2.977 10.289-9.539h3.586l-11.32 10.688 12.492 14.672h-3.609l-10.875-12.82zm39.281 12.82c-.172-.516-.305-1.09-.398-1.723-.094-.633-.156-1.277-.188-1.934-.484.594-1.047 1.141-1.688 1.641s-1.34.934-2.098 1.301c-.758.367-1.574.656-2.449.867-.875.211-1.789.316-2.742.316-1.188 0-2.293-.172-3.316-.516-1.023-.344-1.914-.828-2.672-1.453-.758-.625-1.352-1.379-1.781-2.262-.43-.883-.645-1.871-.645-2.965 0-1.453.32-2.687.961-3.703s1.508-1.84 2.602-2.473c1.094-.633 2.359-1.098 3.797-1.395 1.438-.297 2.945-.445 4.523-.445h5.484v-2.883c-.016-.953-.203-1.793-.563-2.52-.359-.727-.848-1.336-1.465-1.828-.617-.492-1.352-.863-2.203-1.113-.852-.25-1.777-.375-2.777-.375-.906 0-1.77.117-2.59.352-.82.234-1.547.57-2.18 1.008-.633.438-1.145.973-1.535 1.605-.391.633-.602 1.348-.633 2.145l-2.813-.023c.047-1.078.332-2.07.855-2.977.523-.906 1.23-1.691 2.121-2.355.891-.664 1.926-1.184 3.105-1.559 1.18-.375 2.441-.563 3.785-.563 1.344 0 2.605.172 3.785.516 1.18.344 2.203.859 3.07 1.547s1.555 1.547 2.063 2.578c.508 1.031.77 2.234.785 3.609v12.281c0 .844.074 1.695.223 2.555.148.859.332 1.68.551 2.461l.023.281h-3zm-9.258-2.016c.984.016 1.926-.102 2.824-.352.898-.25 1.723-.598 2.473-1.043.75-.445 1.414-.977 1.992-1.594.578-.617 1.031-1.293 1.359-2.027v-5.555h-5.109c-1.234 0-2.422.094-3.563.281-1.141.188-2.148.496-3.023.926-.875.43-1.574 1.004-2.098 1.723-.523.719-.785 1.617-.785 2.695 0 .766.156 1.453.469 2.063.313.609.734 1.129 1.266 1.559.531.43 1.156.758 1.875.984.719.227 1.492.34 2.32.34zm40.805 4.383h-20.648v-2.367h20.648v2.367z"/></g></svg>